<?xml version="1.0" encoding="UTF-8"?>
<!-- Uploaded to: SVG Find, www.svgrepo.com, Generator: SVG Find Mixer Tools -->
<svg fill="#000000" width="800px" height="800px" version="1.1" viewBox="144 144 512 512" xmlns="http://www.w3.org/2000/svg">
 <path d="m532.56 495.57c-12.281-67.938-71.242-117.21-140.28-117.21h-4.0898-0.15625-53.293c-2.7539 0-5.2734-1.3398-6.9258-3.4648l-29.125-38.574c-2.9141-3.7773-2.2031-9.2891 1.6523-12.203s9.2891-2.125 12.203 1.7305l26.527 35.031h41.723c2.5195-28.102 7.9492-56.047 16.375-82.973 1.1016-3.3867 2.3633-7.0859 3.7773-10.941 6.2188-17.32 13.305-36.918 3.7773-49.043-6.9258-8.8945-15.035-12.832-24.953-12.043-21.805 1.6523-47.23 24.875-60.93 37.312-14.957 13.699-26.527 26.055-36.449 38.887-23.457 30.309-36.918 62.82-39.91 96.59-8.5 95.801 66.754 166.65 112.41 200.34 15.352 11.258 26.609 13.777 37.707 8.582 10.707-5.1172 19.996-17.32 17.004-30.859l-14.012-47.074c-8.1094-27.078-13.145-55.105-15.191-83.363h-39.988l-17.633 40.07c-1.9688 4.4102-7.0859 6.375-11.492 4.4102-4.4102-1.9688-6.4531-7.0859-4.4883-11.492l19.996-45.184c1.3398-3.1484 4.4883-5.1953 7.9492-5.1953h53.137 0.078125 0.15625 4.1719c54.238 0 100.61 38.73 110.21 92.102l16.531 91.945 30.07-5.4336zm-223.09-93.758-25.031 25.031c-1.4961 1.4961-3.543 2.2812-5.5117 2.2812-2.0469 0-4.0938-0.78906-5.5898-2.2812-3.0703-3.0703-3.0703-8.1094 0-11.18l19.445-19.445-19.445-19.523c-3.0703-3.0703-3.0703-8.0312 0-11.098 3.0703-3.0703 8.0312-3.0703 11.098 0l25.031 25.031c3.0742 3.0742 3.0742 8.0352 0.003906 11.184zm218.14-131.3c0.94531 60.062-29.363 96.906-50.145 115.09 8.7383 5.5117 17.004 11.887 24.562 18.973 28.023-26.137 57.703-69.668 56.047-135.95z"/>
</svg>