<?xml version="1.0" standalone="no"?>
<!DOCTYPE svg PUBLIC "-//W3C//DTD SVG 20010904//EN"
 "http://www.w3.org/TR/2001/REC-SVG-20010904/DTD/svg10.dtd">
<svg version="1.0" xmlns="http://www.w3.org/2000/svg"
 width="2302.000000pt" height="2013.000000pt" viewBox="0 0 2302.000000 2013.000000"
 preserveAspectRatio="xMidYMid meet">
<metadata>
Created by potrace 1.16, written by Peter Selinger 2001-2019
</metadata>
<g transform="translate(0.000000,2013.000000) scale(0.359687,-0.471429)"
fill="#000000" stroke="none">
<path d="M2370 4245 c-258 -80 -464 -177 -701 -330 -135 -87 -216 -150 -368
-286 -471 -420 -792 -988 -910 -1611 -77 -406 -68 -855 26 -1233 59 -239 129
-435 220 -620 88 -178 78 -165 134 -165 27 0 49 3 49 6 0 3 -13 24 -29 47 -96
140 -236 477 -297 712 -70 273 -79 348 -79 675 0 297 10 420 40 511 l15 44 -5
-57 c-3 -32 -7 -84 -10 -115 -3 -40 1 -27 14 42 23 128 33 234 19 214 -12 -18
-9 0 30 151 31 122 67 237 98 310 25 60 169 346 196 390 222 362 497 643 866
886 65 42 129 85 144 95 15 11 32 19 38 19 6 0 33 12 60 26 27 14 54 23 60 19
13 -8 42 14 34 26 -3 5 4 9 15 9 12 0 21 5 21 10 0 6 7 10 15 10 9 0 38 11 65
25 148 75 392 149 629 190 l136 23 -225 1 c-208 0 -231 -2 -300 -24z"/>
<path d="M3570 4258 c322 -54 598 -140 849 -265 134 -67 153 -79 307 -178 254
-166 555 -463 723 -714 57 -85 147 -235 197 -328 38 -71 107 -234 101 -240 -3
-2 -8 6 -12 19 -16 52 -119 258 -129 258 -6 0 -29 28 -51 63 -69 108 -166 239
-249 337 -96 112 -90 106 -207 212 -152 137 -201 178 -258 211 -29 18 -67 40
-85 51 -211 127 -496 260 -701 326 -38 12 -75 26 -81 31 -17 13 -248 67 -369
86 -203 32 -740 17 -778 -22 -7 -6 -30 -15 -52 -18 -167 -28 -270 -52 -399
-91 -82 -26 -151 -44 -154 -41 -3 3 1 5 8 5 10 0 11 3 4 10 -7 7 -40 0 -105
-24 -52 -18 -126 -43 -164 -55 -39 -11 -80 -27 -90 -35 -17 -13 -12 -13 42 0
34 8 74 19 87 24 34 12 44 -5 14 -23 -27 -17 -129 -52 -142 -49 -13 4 -246
-173 -344 -262 -15 -13 -52 -45 -82 -72 -69 -59 -260 -241 -260 -248 0 -2 -12
-17 -27 -33 -43 -44 -104 -121 -103 -129 1 -4 -3 -10 -10 -14 -47 -29 -324
-518 -313 -554 3 -12 1 -16 -6 -12 -6 4 -11 0 -11 -9 0 -10 -7 -31 -15 -48
-47 -102 -98 -269 -136 -449 -7 -32 -15 -56 -18 -54 -3 2 -4 -16 -2 -41 2 -33
0 -44 -9 -38 -6 4 -9 14 -6 22 4 8 1 11 -5 7 -6 -4 -8 -26 -5 -58 3 -31 2 -41
-2 -26 -8 23 -9 22 -15 -15 -10 -59 -8 -123 3 -130 6 -3 10 -1 10 6 0 8 5 8
16 -2 15 -12 16 -9 13 28 -3 23 -2 40 2 37 3 -2 9 29 12 69 4 40 9 83 12 97
19 92 26 144 21 157 -3 8 -2 12 2 9 5 -3 19 40 32 94 l24 100 48 0 c35 0 48 4
48 14 0 10 -14 16 -43 19 l-42 4 43 1 42 2 0 40 c0 36 -2 40 -25 40 -14 0 -25
4 -25 8 0 31 148 348 194 415 14 21 26 40 26 43 0 7 88 140 128 194 46 62 58
76 118 146 29 34 50 64 47 68 -3 3 -1 6 5 6 6 0 55 44 109 97 54 53 132 123
173 156 41 33 77 63 78 68 2 5 8 9 13 9 4 0 49 27 98 61 182 122 522 279 724
333 272 74 502 102 762 93 313 -12 533 -57 832 -173 321 -124 590 -301 838
-549 185 -184 255 -273 399 -504 15 -24 54 -96 86 -160 53 -107 70 -147 130
-301 44 -117 101 -363 121 -534 42 -343 7 -731 -93 -1046 -92 -291 -217 -540
-387 -771 -13 -19 -6 -19 279 -17 l292 3 79 155 c43 85 91 187 105 225 15 39
33 84 40 100 28 61 62 180 53 183 -5 2 -9 13 -8 25 0 21 1 21 8 2 6 -16 14 -1
34 65 14 47 28 105 32 130 3 25 12 72 20 105 33 143 41 326 16 360 -4 6 -5 53
-1 105 l7 95 1 -102 c1 -70 6 -103 14 -103 8 0 9 54 4 213 -8 237 -15 303 -35
299 -7 -1 -10 2 -6 8 3 6 11 8 16 4 6 -3 8 4 5 18 -3 12 -15 75 -26 138 -103
574 -379 1099 -795 1516 -294 294 -643 520 -1006 648 -57 21 -128 46 -157 57
-48 17 -81 19 -305 18 -190 -1 -238 -4 -197 -11z m518 -303 c17 -4 32 -11 32
-16 0 -5 9 -9 20 -9 44 0 347 -149 342 -169 -1 -7 2 -10 8 -6 13 8 52 -19 42
-30 -4 -5 -2 -5 5 -1 16 9 158 -84 263 -174 25 -21 83 -68 130 -105 104 -81
374 -345 395 -385 8 -16 21 -33 28 -37 17 -11 99 -123 90 -123 -3 0 -17 10
-30 22 -29 27 -31 6 -3 -37 25 -37 28 -74 5 -55 -13 10 -15 9 -15 -9 0 -22 16
-61 30 -71 3 -3 1 -16 -6 -30 l-13 -24 -9 24 c-5 14 -7 31 -5 38 3 7 0 10 -8
7 -9 -3 -39 37 -88 118 -67 109 -148 225 -177 252 -6 6 -28 34 -49 64 -41 60
-94 120 -139 160 -17 14 -51 46 -76 71 -131 128 -323 265 -493 354 -122 64
-169 89 -222 121 -22 13 -49 24 -60 25 -11 0 -38 5 -60 11 -34 10 -37 13 -20
20 11 4 27 6 35 4 8 -2 30 -6 48 -10z m1698 -1627 c25 -65 50 -116 54 -113 9
6 20 -25 44 -121 38 -148 65 -397 65 -584 -1 -166 -14 -287 -23 -204 -1 6 -10
23 -20 39 -14 21 -17 40 -14 76 3 27 1 49 -3 49 -12 0 -11 67 1 75 6 3 10 16
9 28 -1 20 -2 20 -9 -3 -7 -23 -8 -21 -15 18 -5 30 -11 39 -16 30 -5 -8 -9 8
-9 42 -1 110 -23 135 -34 38 -7 -56 -9 -61 -21 -45 -14 19 -14 54 -1 75 4 7 2
12 -4 12 -8 0 -9 29 -4 99 5 69 3 100 -5 105 -7 4 -15 -4 -21 -20 l-11 -28
-24 25 c-13 13 -26 35 -29 49 -6 35 -24 80 -32 80 -6 0 3 -115 13 -160 3 -14
3 -22 -1 -19 -11 10 -66 288 -66 332 0 21 -3 36 -7 34 -5 -3 -8 8 -9 23 l-1
29 18 -24 c11 -13 19 -27 19 -32 0 -15 50 -67 51 -52 0 8 8 -8 18 -36 9 -27
22 -59 29 -70 11 -18 12 -15 11 20 -1 40 -10 73 -34 130 -31 72 -31 104 -1 40
9 -19 22 -35 27 -35 13 0 2 105 -13 134 -7 12 -12 45 -12 73 -1 52 -1 52 16
30 10 -12 38 -75 64 -139z"/>
<path d="M4250 3701 c-131 -40 -261 -186 -320 -357 -19 -53 -47 -177 -65 -289
-4 -22 -7 -97 -7 -167 l1 -128 -120 0 c-101 0 -119 -2 -119 -16 0 -13 18 -15
122 -13 111 1 123 0 130 -17 4 -11 17 -45 29 -77 12 -35 25 -55 31 -51 7 4 8
2 4 -4 -10 -16 24 -64 40 -58 19 7 42 -30 50 -80 7 -46 6 -47 -102 -136 -57
-47 -80 -95 -71 -150 3 -18 0 -104 -6 -190 l-11 -158 -79 0 c-70 0 -78 -2 -67
-15 9 -11 32 -15 82 -15 66 0 69 -1 68 -22 -4 -45 0 -58 18 -58 9 0 35 -14 56
-30 22 -17 44 -30 49 -30 6 0 26 -12 45 -26 19 -15 68 -35 111 -46 42 -11 101
-33 131 -49 138 -74 161 -127 175 -391 7 -121 5 -141 -10 -164 -12 -18 -23
-24 -37 -21 -18 5 -19 4 -4 -16 9 -12 27 -39 41 -59 14 -21 40 -44 58 -51 18
-8 40 -22 50 -31 18 -19 23 -81 8 -105 -10 -16 6 -71 20 -71 5 0 9 -6 9 -14 0
-8 -20 -22 -45 -33 -25 -10 -45 -20 -45 -23 0 -3 21 -20 47 -38 45 -31 45 -43
0 -21 -19 9 -19 8 3 -12 l25 -22 -25 8 c-33 10 -31 10 -65 -4 -16 -7 -46 -14
-65 -15 -19 -1 -45 -7 -56 -13 -12 -7 -57 -15 -100 -18 -44 -3 -94 -8 -111
-11 -18 -3 -33 -4 -33 -2 -1 2 -4 39 -7 83 -3 44 -7 82 -9 84 -2 2 -4 -40 -4
-94 0 -112 -21 -203 -54 -234 -24 -22 -150 -60 -162 -48 -12 11 4 20 47 26 48
7 55 23 14 32 -21 5 -24 7 -10 9 17 2 17 3 -5 10 -14 4 -38 8 -55 8 -29 -1
-29 -1 5 -8 24 -5 28 -8 12 -9 -13 0 -21 -5 -18 -10 4 -6 -5 -6 -21 -2 -16 5
-27 13 -26 20 2 6 -2 11 -7 11 -6 0 -10 -5 -10 -10 0 -6 -11 -8 -25 -4 -20 5
-24 3 -19 -10 7 -18 -7 -21 -34 -7 -9 5 -37 15 -62 22 -31 9 -61 29 -97 66
-54 56 -97 70 -106 36 -3 -10 -5 0 -6 22 -2 47 -27 88 -40 66 -10 -16 -2 -93
11 -102 5 -3 2 -11 -6 -18 -20 -16 -2 -57 28 -65 20 -6 20 -7 3 -17 -10 -6
-28 -9 -39 -6 -11 3 -31 1 -45 -4 -17 -6 -22 -6 -17 2 5 9 -6 10 -41 5 -33 -5
-45 -4 -40 3 3 6 21 12 38 12 18 1 24 3 15 6 -13 3 -18 15 -18 44 0 39 0 39
-40 39 -40 0 -40 0 -40 -39 0 -45 -10 -52 -65 -41 l-40 8 48 1 47 1 0 73 0 73
-76 -1 c-58 -1 -77 2 -81 12 -3 8 -21 29 -39 47 -26 26 -34 41 -34 70 0 35 -1
36 -40 36 -38 0 -40 2 -40 30 0 28 -2 30 -40 30 -22 0 -40 5 -40 10 0 6 -11
10 -26 10 -24 0 -25 2 -22 52 l3 53 105 -2 c59 -1 110 3 117 8 7 6 17 8 24 4
6 -4 57 -9 113 -12 101 -4 163 7 151 27 -11 17 11 11 40 -12 27 -21 29 -21 57
-5 24 14 33 14 49 4 16 -10 21 -9 28 1 4 7 41 18 81 23 40 6 84 15 99 21 l26
11 -25 7 c-18 6 -10 8 33 9 51 1 59 4 69 27 9 20 17 24 35 19 13 -3 23 -1 23
5 0 5 -11 12 -25 16 -14 3 -25 10 -25 14 0 5 -7 10 -15 12 -12 3 -12 7 -1 33
8 17 17 38 20 48 5 17 8 16 43 -3 21 -11 52 -31 69 -43 17 -13 82 -40 145 -62
63 -21 123 -44 134 -52 24 -16 39 -17 29 -2 -3 6 5 21 19 33 19 16 24 28 20
49 -3 15 -10 27 -16 27 -6 0 0 8 13 17 36 24 36 23 20 33 -12 7 -12 11 0 25
16 19 5 30 -38 41 -20 5 -23 12 -20 35 4 23 0 30 -21 39 l-26 9 25 0 c44 -2
50 0 43 17 -5 13 -2 15 15 9 26 -8 30 10 5 19 -21 7 -84 44 -98 57 -12 12 17
12 49 -1 51 -19 24 6 -58 55 -47 27 -83 51 -81 54 3 2 16 -4 29 -13 14 -9 31
-16 38 -16 20 1 -94 59 -117 60 -11 0 -38 7 -60 15 -53 19 -119 19 -157 -1
-27 -14 -30 -14 -25 -1 8 21 -37 28 -63 10 -30 -21 -51 -10 -100 57 -30 39
-54 61 -73 65 -15 4 -43 21 -62 39 -19 18 -37 31 -40 28 -3 -3 -5 5 -5 17 0
12 -5 31 -10 42 -17 32 -180 105 -180 81 0 -5 10 -14 23 -20 21 -10 21 -11 -8
-12 -16 -1 -24 -4 -17 -7 10 -4 10 -8 1 -19 -9 -11 -8 -14 6 -14 10 0 16 -3
13 -6 -3 -3 -29 -1 -57 4 -33 6 -51 6 -51 -1 0 -12 -90 1 -108 16 -7 5 -10 17
-8 24 4 11 0 13 -14 8 -11 -4 -20 -2 -20 4 0 16 -16 13 -34 -5 -9 -8 -21 -12
-27 -8 -7 4 -9 3 -6 -3 7 -11 -41 -29 -50 -19 -3 2 4 13 16 25 22 22 80 41
126 41 17 0 47 3 67 6 l37 6 -16 32 c-25 50 -44 66 -78 66 -36 0 -47 -10 -78
-71 -20 -38 -29 -45 -97 -69 -135 -49 -210 -87 -210 -107 0 -10 -7 -29 -16
-41 -11 -16 -14 -41 -12 -91 l3 -70 21 20 c36 34 37 20 1 -20 -19 -21 -39 -46
-44 -56 -12 -20 -33 -12 -33 13 0 9 -4 23 -9 31 -8 12 -15 9 -41 -12 -17 -15
-36 -27 -41 -27 -15 0 -32 -19 -64 -69 -25 -40 -26 -48 -16 -80 13 -39 19 -86
20 -142 1 -27 6 -38 19 -41 10 -3 28 -21 39 -40 l21 -35 -64 -6 c-35 -4 -73
-11 -85 -17 -15 -8 -24 -8 -33 0 -10 8 -15 7 -19 -4 -5 -12 8 -14 81 -12 62 3
80 1 62 -6 -35 -13 -6 -29 40 -22 l35 6 -32 -21 c-42 -27 -42 -34 2 -25 45 8
167 -5 160 -17 -4 -5 -13 -9 -22 -9 -9 0 -21 -8 -28 -17 -11 -15 -29 -17 -128
-14 -113 2 -114 2 -144 -26 -27 -25 -40 -46 -74 -115 -5 -10 -9 -26 -9 -35 0
-10 -7 -31 -16 -48 -10 -19 -13 -44 -10 -70 4 -26 3 -32 -2 -15 -13 41 -56
-107 -48 -163 5 -34 4 -38 -6 -23 -13 22 -6 260 12 391 15 108 10 195 -12 209
-14 8 -23 3 -50 -26 -48 -52 -63 -72 -71 -91 -3 -9 -12 -17 -19 -17 -15 0 -98
-85 -98 -100 0 -5 -6 -10 -12 -10 -21 -1 -50 -48 -43 -69 6 -21 -7 -27 -60
-30 -19 0 -36 -9 -45 -23 -8 -12 -36 -44 -62 -70 -30 -30 -45 -53 -42 -63 4
-8 10 -15 15 -15 19 0 8 -20 -18 -35 -24 -14 -25 -16 -6 -12 13 3 26 1 29 -4
9 -15 22 -10 26 9 3 15 5 14 16 -5 10 -17 9 -36 -3 -93 -22 -106 -20 -134 15
-173 16 -19 56 -48 89 -65 l59 -32 1589 0 1589 0 25 33 c140 187 296 480 368
691 36 103 40 124 31 155 -5 20 -6 37 -1 39 30 10 42 36 61 127 34 163 49 319
50 510 0 306 -35 529 -101 632 -21 34 -39 72 -39 83 0 26 -23 49 -108 105 -39
25 -87 61 -109 81 -21 20 -50 43 -65 52 -18 10 -30 28 -34 49 -4 19 -11 30
-17 26 -6 -3 -7 -1 -3 5 4 7 0 22 -8 34 -9 12 -16 27 -16 33 0 5 5 3 11 -5 9
-12 10 -12 5 3 -3 10 -6 26 -7 35 0 14 -2 13 -8 -3 -7 -16 -9 -13 -15 18 -4
20 -5 41 -2 46 3 4 -3 32 -14 62 -10 30 -32 122 -49 204 -16 83 -34 161 -39
175 -19 49 -243 261 -392 371 -88 65 -223 149 -236 148 -5 0 -20 -4 -34 -8z
m392 -589 c-45 -42 -82 -85 -82 -94 0 -9 -4 -20 -10 -23 -5 -3 -10 -32 -10
-63 0 -60 1 -60 66 -88 7 -3 23 19 38 52 15 31 29 54 32 51 4 -3 -3 -23 -15
-43 -17 -28 -19 -39 -10 -45 9 -5 9 -11 -2 -22 -8 -8 -50 -53 -93 -101 -59
-64 -85 -85 -98 -80 -13 4 -16 1 -12 -9 3 -8 -8 -25 -27 -41 -30 -25 -35 -26
-108 -20 -42 4 -87 12 -101 20 -35 17 -104 92 -125 134 -25 49 -52 81 -78 94
-30 15 -34 60 -8 83 15 12 21 29 21 59 0 39 2 41 39 52 21 7 47 12 59 12 15 0
23 10 31 38 l10 37 -5 -38 -5 -39 199 4 198 3 70 60 c38 33 75 66 82 73 7 6
16 12 20 12 4 -1 -30 -36 -76 -78z m-134 -879 c-25 -43 -38 -55 -54 -49 -7 3
-10 -3 -7 -13 6 -24 -46 -105 -76 -119 -31 -15 -102 4 -108 29 -3 10 -11 20
-17 22 -18 7 -14 68 4 77 8 4 30 12 48 18 27 9 33 8 29 -3 -9 -22 75 -24 98
-2 10 9 28 17 39 17 13 0 28 12 38 30 9 17 19 30 22 30 3 0 -4 -17 -16 -37z
m-2744 -1741 c9 -32 16 -78 16 -101 0 -36 -3 -42 -16 -37 -12 5 -15 2 -10 -10
4 -9 2 -22 -4 -29 -14 -16 -2 -45 19 -46 11 0 12 -2 3 -6 -14 -5 89 -73 111
-73 7 0 19 -5 27 -11 12 -8 9 -9 -10 -4 -37 10 -134 48 -140 55 -3 4 -18 11
-35 17 l-30 10 0 114 c0 119 3 146 20 166 20 24 33 12 49 -45z"/>
<path d="M2748 2897 l-138 -9 0 -49 0 -49 50 0 c28 0 50 5 50 10 0 6 11 10 25
10 21 0 25 5 25 30 0 29 1 30 50 32 28 0 55 1 62 2 7 1 15 -10 19 -24 6 -20 7
-17 8 18 1 23 -2 41 -6 40 -5 0 -70 -6 -145 -11z"/>
<path d="M2760 2784 c-8 -2 -44 -5 -80 -6 l-64 -3 0 -40 0 -40 139 3 c77 2
141 5 144 7 2 3 5 23 7 45 l3 40 -67 -1 c-37 -1 -74 -3 -82 -5z"/>
<path d="M2765 2679 c-71 -3 -133 -7 -137 -8 -5 0 -8 -24 -8 -52 l0 -52 77 7
c42 3 105 6 140 6 l63 0 -1 33 c0 17 -3 25 -6 17 -10 -25 -22 -28 -122 -24
-79 2 -96 6 -95 19 1 8 -4 15 -12 15 -8 0 -14 5 -14 11 0 7 42 9 125 7 114 -3
125 -1 125 15 0 9 -1 16 -2 15 -2 -1 -61 -5 -133 -9z"/>
<path d="M1548 2355 c-45 -30 -58 -53 -48 -80 9 -22 3 -63 -12 -81 -5 -7 0
-20 13 -35 l20 -24 -5 30 c-3 17 -3 25 0 19 3 -8 17 -8 47 -2 52 12 66 12 96
2 21 -6 23 -4 19 13 -5 18 -3 19 18 9 13 -6 25 -22 27 -36 l3 -25 11 25 c6 14
8 29 5 35 -3 5 -7 25 -9 45 -5 56 -33 98 -75 115 -52 20 -67 19 -110 -10z"/>
<path d="M1479 2033 c-18 -21 -49 -46 -68 -55 l-36 -16 35 -3 c55 -3 242 1
250 6 11 7 72 -20 63 -28 -3 -4 -118 -7 -254 -7 l-248 0 -3 -97 c-2 -54 -7
-106 -12 -115 -8 -17 9 -18 278 -18 l286 0 15 -36 14 -35 69 69 c37 38 82 75
100 83 29 13 30 15 15 31 -9 10 -26 18 -37 18 -18 0 -19 -2 -6 -11 12 -9 10
-10 -9 -5 -29 6 -145 -45 -159 -71 -9 -15 -11 -14 -20 4 -19 35 -32 142 -21
171 12 32 26 42 57 42 34 0 152 -57 152 -73 0 -7 12 -24 27 -38 l27 -24 -18
30 c-40 65 -126 135 -166 135 -11 0 -34 16 -51 35 -17 19 -36 35 -41 35 -6 0
-23 -11 -40 -25 -16 -14 -39 -25 -50 -25 -30 0 -88 30 -88 46 0 25 -27 15 -61
-23z"/>
<path d="M1997 1928 c-5 -39 -3 -56 8 -68 8 -9 15 -22 15 -28 0 -20 27 -13 43
11 8 12 37 45 65 73 l50 51 -66 7 c-114 10 -108 13 -115 -46z"/>
<path d="M671 640 c-1 -8 6 -28 15 -45 8 -16 27 -59 41 -95 28 -71 57 -138 79
-184 8 -16 14 -36 14 -44 0 -9 3 -12 7 -8 11 11 45 -85 34 -98 -10 -12 -8
-121 4 -148 6 -15 21 -18 92 -18 l85 0 -30 38 c-16 20 -34 47 -41 60 -7 12
-16 20 -22 17 -5 -4 -9 0 -9 8 0 8 -17 44 -39 78 -44 74 -110 201 -141 274
-36 84 -63 140 -70 145 -4 3 -10 12 -13 20 -5 13 -6 13 -6 0z"/>
</g>
</svg>
